<?xml version="1.0" encoding="utf-8"?>
<!-- Generator: Adobe Illustrator 22.1.0, SVG Export Plug-In . SVG Version: 6.00 Build 0)  -->
<svg version="1.1" id="Calque_1" focusable="false" xmlns="http://www.w3.org/2000/svg" xmlns:xlink="http://www.w3.org/1999/xlink"
	 x="0px" y="0px" viewBox="0 0 384 447.1" style="enable-background:new 0 0 384 447.1;" xml:space="preserve">
<path d="M287.5,81.8c-22.2-14-43.5-19.5-64.7-33.5c-13-8.8-31.3-30-46.5-48.3c-2.7,29.3-11.5,41.2-22,49.5
	c-21.3,17-34.8,22.2-53.5,32.3C85,90.1,0,148.6,0,257.6c0,109.2,91.8,189.5,193.8,189.5c101.7,0,190.2-74,190.2-186
	C384,148.8,301,90.1,287.5,81.8z M290,407.4c-20.1,20.1-90.1,28.7-116.7,4.2c-4.8-4.8,0.3-12,6.5-12c0,0,17,13.3,51.5,13.3
	c27,0,46-7.7,54.5-14C291.9,394.3,294.2,403.2,290,407.4z M235.5,354.8c8.7-3.6,29-3.8,36.8,1.3c4.1,2.8,16.1,18.8,6.2,23.7
	c-8.4,4.2-1.2-15.7-26.5-15.7c-14.7,0-19.5,5.2-26.7,11c-7,6-9.8,8-12.2,4.7C207.1,371.6,229,357.5,235.5,354.8z M328,372.1
	c-15.2-1-45.5-48.8-65-49.5c-30.9-0.9-104.1,80.7-161.3,42C62.9,338,87.1,259.8,153.5,259.4c49.5-0.5,83.8,49,108.5,48.5
	c21.3-0.3,61.8-41.8,81.8-41.8C392.5,266.1,367.1,375.4,328,372.1z"/>
</svg>
