<?xml version="1.0" encoding="utf-8"?>
<!-- Generator: Adobe Illustrator 23.0.3, SVG Export Plug-In . SVG Version: 6.00 Build 0)  -->
<svg version="1.1" id="Layer_1" xmlns="http://www.w3.org/2000/svg" xmlns:xlink="http://www.w3.org/1999/xlink" x="0px" y="0px"
	 viewBox="0 0 316 255" style="enable-background:new 0 0 316 255;" xml:space="preserve">
<style type="text/css">
	.st0{fill:#0071B9;}
	.st1{fill:#EC1C24;}
	.st2{fill:#F5E900;}
	.st3{fill:#231F20;}
</style>
<g>
	<g>
		<g>
			<g>
				<path class="st0" d="M160.91,78.36c0.83-8.3-2.63-11.99-10.71-12.35c-5.61-0.25-12.81-1.24-11.35-8.98
					c1.17-6.22,8.53-4.69,13.23-5.59c6.76-1.29,10.73-6.88,8.88-13.74c-1.93-7.13-8.72-10.48-15.68-9.47
					c-3.17,0.46-1.82,5.28,1.33,4.82c5.06-0.74,11.74,4.06,9.62,9.88c-1.78,4.88-8.71,3.65-12.63,4.33
					c-4.97,0.87-8.93,3.51-9.72,8.75c-0.72,4.79,0.83,10.06,5.07,12.72c2.38,1.49,5.26,1.95,8.01,2.15
					c1.62,0.12,3.25,0.06,4.87,0.18c4.22,0.33,4.43,3.89,4.09,7.28C155.59,81.56,160.59,81.54,160.91,78.36L160.91,78.36z"/>
			</g>
		</g>
		<path class="st1" d="M190.66,108.46c0-16.62-13.47-30.09-30.09-30.09h-5.13c-16.62,0-30.09,13.47-30.09,30.09v11.15l12.19,18.75
			l20.39-27.81l20.86,27.81l11.88-18.44V108.46z"/>
		<polygon class="st2" points="125.34,119.6 137.53,138.35 157.92,110.54 178.78,138.35 190.66,119.92 190.66,143.27 178.78,161.71 
			157.92,133.89 137.53,161.71 125.34,142.96 		"/>
		<g>
			<path class="st0" d="M125.34,142.96l12.19,18.75l20.39-27.81l20.86,27.81l11.88-18.44v5.32c0,16.62-13.47,30.09-30.09,30.09
				h-5.13c-16.62,0-30.09-13.47-30.09-30.09V142.96z"/>
		</g>
		<path class="st2" d="M157.96,84.36c0,0-0.61,8.64,29.13,9.71c0,0,1.45,2.31,1.63,3.56c0,0-30.38,0.9-30.76,9.71
			c0,0,1.92-8.14-30.69-9.71c0,0,0.96-2.5,1.63-3.59C128.91,94.05,157.92,93.18,157.96,84.36z"/>
		<polygon class="st1" points="158,89.7 159.69,93.12 163.46,93.66 160.73,96.33 161.38,100.09 158,98.31 154.62,100.09 
			155.27,96.33 152.54,93.66 156.31,93.12 		"/>
	</g>
	<g>
		<path class="st3" d="M61.95,196.4h2.55l2.82,7.41l2.85-7.41h2.55l-3.69,9.27l3.66,8.79l7.2-18.18h2.94l-8.91,21.3h-2.34
			l-4.23-10.05l-4.26,10.05h-2.34l-8.88-21.3h2.91l7.23,18.18l3.63-8.79L61.95,196.4z"/>
		<path class="st3" d="M93.54,217.73c-1.5,0-2.87-0.3-4.1-0.92s-2.29-1.42-3.16-2.43c-0.88-1.01-1.56-2.16-2.04-3.46
			c-0.48-1.3-0.72-2.63-0.72-3.99c0-1.42,0.25-2.78,0.77-4.08c0.51-1.3,1.21-2.45,2.11-3.45s1.97-1.79,3.2-2.39
			c1.23-0.59,2.56-0.88,4-0.88c1.5,0,2.86,0.32,4.08,0.95c1.22,0.63,2.27,1.46,3.15,2.47c0.88,1.02,1.56,2.17,2.04,3.46
			s0.72,2.61,0.72,3.95c0,1.42-0.25,2.78-0.76,4.08c-0.51,1.3-1.21,2.45-2.1,3.43c-0.89,0.99-1.95,1.78-3.18,2.37
			C96.32,217.43,94.98,217.73,93.54,217.73z M86.25,206.93c0,1.08,0.17,2.13,0.52,3.14c0.35,1.01,0.84,1.9,1.49,2.68
			c0.64,0.78,1.41,1.4,2.31,1.86c0.9,0.46,1.9,0.69,3,0.69c1.14,0,2.16-0.24,3.06-0.73c0.9-0.49,1.67-1.13,2.29-1.92
			c0.63-0.79,1.11-1.69,1.44-2.69c0.33-1,0.49-2.01,0.49-3.03c0-1.08-0.18-2.12-0.52-3.13c-0.35-1.01-0.85-1.9-1.5-2.67
			c-0.65-0.77-1.42-1.38-2.31-1.84c-0.89-0.46-1.88-0.69-2.96-0.69c-1.14,0-2.16,0.24-3.06,0.72c-0.9,0.48-1.67,1.11-2.3,1.89
			c-0.63,0.78-1.11,1.67-1.45,2.67C86.42,204.87,86.25,205.89,86.25,206.93z"/>
		<path class="st3" d="M110.07,201.32v16.26h-2.7v-21.3h2.1l13.2,16.59v-16.56h2.7v21.27h-2.28L110.07,201.32z"/>
		<path class="st3" d="M130.47,217.58v-21.3h7.38c1.7,0,3.19,0.28,4.48,0.84c1.29,0.56,2.36,1.32,3.23,2.28
			c0.86,0.96,1.5,2.08,1.94,3.38c0.43,1.29,0.65,2.67,0.65,4.13c0,1.62-0.24,3.08-0.72,4.39c-0.48,1.31-1.17,2.43-2.07,3.36
			c-0.9,0.93-1.99,1.65-3.26,2.16c-1.27,0.51-2.68,0.76-4.24,0.76H130.47z M145.41,206.9c0-1.2-0.17-2.3-0.5-3.32
			c-0.33-1.01-0.82-1.88-1.47-2.59s-1.44-1.29-2.38-1.7c-0.94-0.41-2.01-0.62-3.21-0.62h-4.68v16.5h4.68c1.22,0,2.3-0.21,3.25-0.63
			c0.95-0.42,1.74-1,2.37-1.74c0.63-0.74,1.11-1.62,1.44-2.63S145.41,208.08,145.41,206.9z"/>
		<path class="st3" d="M166.47,215.18v2.4h-14.46v-21.3h14.19v2.4h-11.49v6.9h9.99v2.25h-9.99v7.35H166.47z"/>
		<path class="st3" d="M170.31,217.58v-21.3h9.12c0.94,0,1.8,0.19,2.6,0.58c0.79,0.39,1.47,0.91,2.04,1.56
			c0.57,0.65,1.01,1.38,1.33,2.19c0.32,0.81,0.48,1.63,0.48,2.47c0,0.74-0.1,1.46-0.31,2.15c-0.21,0.69-0.51,1.32-0.9,1.88
			s-0.86,1.04-1.41,1.44c-0.55,0.4-1.17,0.69-1.84,0.87l5.16,8.16h-3.06l-4.86-7.65h-5.64v7.65H170.31z M173.01,207.53h6.45
			c0.56,0,1.07-0.12,1.51-0.36c0.45-0.24,0.83-0.56,1.16-0.97c0.32-0.41,0.57-0.88,0.75-1.42s0.27-1.1,0.27-1.68
			c0-0.6-0.11-1.17-0.32-1.69c-0.21-0.53-0.49-1-0.84-1.41c-0.35-0.41-0.76-0.73-1.23-0.96c-0.47-0.23-0.96-0.35-1.48-0.35h-6.27
			V207.53z"/>
		<path class="st3" d="M204.48,196.4h2.55l2.82,7.41l2.85-7.41h2.55l-3.69,9.27l3.66,8.79l7.2-18.18h2.94l-8.91,21.3h-2.34
			l-4.23-10.05l-4.26,10.05h-2.34l-8.88-21.3h2.91l7.23,18.18l3.63-8.79L204.48,196.4z"/>
		<path class="st3" d="M242.61,215.18v2.4h-14.46v-21.3h14.19v2.4h-11.49v6.9h9.99v2.25h-9.99v7.35H242.61z"/>
		<path class="st3" d="M262.8,212.09c0,0.82-0.17,1.57-0.5,2.25c-0.33,0.68-0.78,1.26-1.35,1.74s-1.23,0.85-1.98,1.11
			s-1.56,0.39-2.42,0.39h-10.11v-21.3h10.59c0.74,0,1.41,0.16,2.01,0.48c0.6,0.32,1.11,0.74,1.53,1.25s0.75,1.09,0.97,1.74
			c0.23,0.65,0.35,1.3,0.35,1.96c0,1.06-0.27,2.04-0.79,2.94c-0.53,0.9-1.29,1.57-2.27,2.01c1.22,0.36,2.19,1.03,2.9,2
			S262.8,210.77,262.8,212.09z M249.15,198.62v7.11h6.78c0.48,0,0.92-0.09,1.32-0.29s0.75-0.45,1.04-0.77
			c0.29-0.32,0.52-0.69,0.69-1.13c0.17-0.43,0.25-0.88,0.25-1.36c0-0.5-0.08-0.97-0.24-1.41c-0.16-0.44-0.38-0.82-0.65-1.14
			c-0.27-0.32-0.6-0.57-0.99-0.75c-0.39-0.18-0.81-0.27-1.25-0.27H249.15z M260.07,211.61c0-0.48-0.09-0.95-0.25-1.4
			c-0.17-0.45-0.4-0.84-0.69-1.18s-0.63-0.61-1.04-0.81c-0.4-0.2-0.84-0.3-1.32-0.3h-7.62v7.32h7.41c0.5,0,0.96-0.1,1.38-0.3
			s0.79-0.47,1.11-0.79c0.32-0.33,0.57-0.71,0.75-1.16C259.98,212.55,260.07,212.09,260.07,211.61z"/>
	</g>
	<g>
		<path class="st1" d="M36.31,206.31l12.6-7.59v2.82l-8.76,5.4l8.76,5.31v2.94l-12.6-7.5V206.31z"/>
	</g>
	<g>
		<path class="st1" d="M279.69,207.6l-12.6,7.59v-2.82l8.76-5.4l-8.76-5.31v-2.94l12.6,7.5V207.6z"/>
	</g>
</g>
</svg>
