<?xml version="1.0" encoding="utf-8"?>
<!-- Generator: Adobe Illustrator 22.1.0, SVG Export Plug-In . SVG Version: 6.00 Build 0)  -->
<svg version="1.1" id="Calque_1" focusable="false" xmlns="http://www.w3.org/2000/svg" xmlns:xlink="http://www.w3.org/1999/xlink"
	 x="0px" y="0px" viewBox="0 0 640 336.6" style="enable-background:new 0 0 640 336.6;" xml:space="preserve">
<path d="M320,16.8c171.4,0,303.2,72.2,303.2,151.5S491.3,319.8,320,319.8c-171.4,0-303.2-72.2-303.2-151.5S148.7,16.8,320,16.8
	 M320,0C143.3,0,0,75.3,0,168.3s143.3,168.3,320,168.3s320-75.3,320-168.3S496.7,0,320,0z M218.2,154.8
	c-7.9,40.5-35.8,36.3-70.1,36.3l13.7-70.6C199.8,120.5,225.6,116.4,218.2,154.8L218.2,154.8z M97.4,262.6h36.7l8.7-44.8
	c41.1,0,66.6,3,90.2-19.1c26.1-24,32.9-66.7,14.3-88.1c-9.7-11.2-25.3-16.7-46.5-16.7h-70.7L97.4,262.6z M283.1,49h36.5l-8.7,44.8
	c31.5,0,60.7-2.3,74.8,10.7c14.8,13.6,7.7,31-8.3,113.1h-37c15.4-79.4,18.3-86,12.7-92c-5.4-5.8-17.7-4.6-47.4-4.6l-18.8,96.6h-36.5
	L283.1,49L283.1,49z M505,154.8c-8,41.1-36.7,36.3-70.1,36.3l13.7-70.6C486.8,120.5,512.4,116.4,505,154.8L505,154.8z M384.2,262.6
	H421l8.7-44.8c43.2,0,67.1,2.5,90.2-19.1c26.1-24,32.9-66.7,14.3-88.1c-9.7-11.2-25.3-16.7-46.5-16.7H417L384.2,262.6z"/>
</svg>
