<svg xmlns="http://www.w3.org/2000/svg" viewBox="0 0 2427.97 3071.48"><defs><style>.cls-1,.cls-2,.cls-5{fill:#0071b9;}.cls-1,.cls-7{stroke:#ec1c24;}.cls-1,.cls-4,.cls-5,.cls-6,.cls-7,.cls-8{stroke-miterlimit:10;stroke-width:20px;}.cls-3,.cls-4,.cls-6{fill:#ec1c24;}.cls-4,.cls-8{stroke:#0071b9;}.cls-5{stroke:#ff0;}.cls-6{stroke:#f5e900;}.cls-7,.cls-8{fill:#f5e900;}</style></defs><title>Fichier 4</title><g id="Calque_2" data-name="Calque 2"><g id="Calque_1-2" data-name="Calque 1"><polygon class="cls-1" points="476.99 2227.33 363.65 2018.81 127.61 1993.96 290.9 1821.73 241.59 1589.56 455.86 1691.64 661.42 1573 630.55 1808.33 806.91 1967.16 573.56 2010.53 476.99 2227.33"/><polygon class="cls-2" points="1464.99 654.33 1351.65 445.81 1115.61 420.96 1278.9 248.73 1229.59 16.56 1443.86 118.64 1649.42 0 1618.55 235.33 1794.91 394.16 1561.56 437.53 1464.99 654.33"/><polygon class="cls-3" points="207.64 742.22 199.83 505 0 376.95 223.19 296.23 283.23 66.6 428.97 253.93 665.9 240.06 532.79 436.56 619.19 657.62 391.17 591.73 207.64 742.22"/><polygon class="cls-4" points="924.62 1602.46 882.21 1368.94 665.79 1271.49 874.78 1158.99 900.58 923.05 1072.15 1087.05 1304.52 1038.68 1201.57 1252.53 1319.37 1458.57 1084.17 1426.75 924.62 1602.46"/><polygon class="cls-5" points="1768.34 1406.2 1869.24 1191.38 1749.48 986.47 1984.97 1016.05 2142.84 838.83 2187.48 1071.93 2404.81 1167.31 2196.91 1281.8 2173.36 1517.97 2000.23 1355.62 1768.34 1406.2"/><polygon class="cls-6" points="1416.16 2222.52 1405.23 1985.43 1203.73 1860.02 1425.84 1776.36 1482.85 1545.97 1631.04 1731.36 1867.78 1714.38 1737.26 1912.61 1826.56 2132.51 1597.7 2069.63 1416.16 2222.52"/><polygon class="cls-7" points="874.4 3017.47 933.71 2787.65 778.01 2608.51 1014.9 2593.9 1137.16 2390.47 1224.26 2611.25 1455.52 2664.66 1272.46 2815.72 1293.12 3052.16 1092.88 2924.75 874.4 3017.47"/><polygon class="cls-8" points="1740.37 2720.22 1938.35 2589.31 1942.74 2352.01 2128.42 2499.84 2355.47 2430.7 2272.24 2652.97 2408.17 2847.54 2171.06 2837.07 2028.01 3026.47 1964.69 2797.73 1740.37 2720.22"/></g></g></svg>