<svg id="Calque_1" data-name="Calque 1" xmlns="http://www.w3.org/2000/svg" viewBox="0 0 1920 2841"><defs><style>.cls-1{fill:#ec1c24;}.cls-2{fill:#0071b9;}.cls-3{fill:#f5e900;}</style></defs><title>Plan de travail 1</title><polygon class="cls-1" points="603.38 2035.44 591.83 2059.3 604.93 2082.35 578.67 2078.74 560.8 2098.32 556.12 2072.22 531.97 2061.28 555.35 2048.77 558.29 2022.42 577.41 2040.78 603.38 2035.44"/><polygon class="cls-1" points="1616.25 655.56 1619.84 674.46 1637.44 682.21 1620.58 691.46 1618.65 710.6 1604.64 697.42 1585.84 701.5 1594.04 684.1 1584.35 667.48 1603.44 669.9 1616.25 655.56"/><polygon class="cls-2" points="237.21 2584.83 249.81 2599.36 268.92 2597.22 258.99 2613.69 266.94 2631.21 248.2 2626.86 233.99 2639.83 232.34 2620.66 215.62 2611.16 233.34 2603.67 237.21 2584.83"/><polygon class="cls-3" points="139.49 1369.39 135.16 1388.13 148.14 1402.32 128.98 1403.99 119.49 1420.73 111.98 1403.02 93.13 1399.17 107.65 1386.55 105.49 1367.44 121.98 1377.35 139.49 1369.39"/><polygon class="cls-3" points="65.41 1846.88 62.09 1884.63 92.14 1910.13 54.25 1917.06 40.04 1951.84 19.94 1918.37 -18.89 1914.36 6.58 1886.74 -3.21 1849.49 32.63 1865.89 65.41 1846.88"/><polygon class="cls-3" points="1621.99 82.85 1651.4 125.21 1702.96 124.99 1671.76 166.05 1687.9 215.02 1639.21 198.04 1597.62 228.52 1598.73 176.97 1556.89 146.83 1606.26 131.96 1621.99 82.85"/><polygon class="cls-3" points="827.17 1246.28 841.64 1275.61 874.01 1280.32 850.59 1303.15 856.12 1335.39 827.17 1320.17 798.21 1335.39 803.74 1303.15 780.32 1280.32 812.69 1275.61 827.17 1246.28"/><polygon class="cls-1" points="1031.28 350.69 1041.44 393.54 1082.5 409.46 1044.89 432.37 1042.44 476.34 1009.03 447.64 966.46 458.9 983.42 418.26 959.56 381.25 1003.45 384.82 1031.28 350.69"/><polygon class="cls-2" points="1447.62 1630.67 1480.9 1653.37 1518.46 1638.83 1507.15 1677.49 1532.59 1708.73 1492.33 1709.92 1470.48 1743.77 1456.91 1705.84 1417.97 1695.52 1449.84 1670.89 1447.62 1630.67"/><polygon class="cls-2" points="1889.65 879.22 1903.72 931.25 1954.56 949.15 1909.43 978.61 1908.11 1032.49 1866.14 998.67 1814.49 1014.07 1833.69 963.71 1803.09 919.34 1856.92 922.04 1889.65 879.22"/><polygon class="cls-3" points="1821.65 2377.23 1817.32 2395.97 1830.3 2410.16 1811.14 2411.83 1801.65 2428.56 1794.14 2410.86 1775.3 2407.01 1789.82 2394.39 1787.65 2375.28 1804.14 2385.19 1821.65 2377.23"/><polygon class="cls-3" points="1490.18 2538.99 1499.19 2589.76 1546.13 2611.11 1500.63 2635.37 1494.83 2686.61 1457.69 2650.84 1407.17 2661.15 1429.72 2614.78 1404.3 2569.91 1455.37 2577.03 1490.18 2538.99"/><polygon class="cls-3" points="438.85 211.99 453.32 241.32 485.69 246.03 462.27 268.86 467.8 301.1 438.85 285.88 409.89 301.1 415.43 268.86 392 246.03 424.37 241.32 438.85 211.99"/><polygon class="cls-2" points="214.5 583.58 247.78 606.28 285.34 591.74 274.03 630.4 299.47 661.64 259.21 662.83 237.36 696.67 223.79 658.75 184.85 648.43 216.72 623.8 214.5 583.58"/></svg>