<?xml version="1.0" encoding="utf-8"?>
<!-- Generator: Adobe Illustrator 22.1.0, SVG Export Plug-In . SVG Version: 6.00 Build 0)  -->
<svg version="1.1" id="Calque_1" focusable="false" xmlns="http://www.w3.org/2000/svg" xmlns:xlink="http://www.w3.org/1999/xlink"
	 x="0px" y="0px" viewBox="0 0 496 496" style="enable-background:new 0 0 496 496;" xml:space="preserve">
<path d="M53.7,161.4l101.5,278C84.2,405,35.3,332.2,35.3,248C35.3,217.1,41.9,187.9,53.7,161.4z M391.6,237.3
	c0-26.3-9.4-44.5-17.5-58.7c-10.8-17.5-20.9-32.4-20.9-49.9c0-19.6,14.8-37.8,35.7-37.8c0.9,0,1.8,0.1,2.8,0.2
	C353.8,56.4,303.4,35.2,248,35.2c-74.3,0-139.7,38.1-177.8,95.9c5,0.2,9.7,0.3,13.7,0.3c22.2,0,56.7-2.7,56.7-2.7
	c11.5-0.7,12.8,16.2,1.4,17.5c0,0-11.5,1.3-24.3,2l77.5,230.4L241.8,239l-33.1-90.8c-11.5-0.7-22.3-2-22.3-2
	c-11.5-0.7-10.1-18.2,1.3-17.5c0,0,35.1,2.7,56,2.7c22.2,0,56.7-2.7,56.7-2.7c11.5-0.7,12.8,16.2,1.4,17.5c0,0-11.5,1.3-24.3,2
	l76.9,228.7l21.2-70.9C384.6,276.6,391.6,255.5,391.6,237.3L391.6,237.3z M251.7,266.6l-63.8,185.5c19.1,5.6,39.2,8.7,60.1,8.7
	c24.8,0,48.5-4.3,70.6-12.1c-0.6-0.9-1.1-1.9-1.5-2.9L251.7,266.6z M434.7,145.9c0.9,6.8,1.4,14,1.4,21.9c0,21.6-4,45.8-16.2,76.2
	l-65,187.9C418.2,395,460.7,326.5,460.7,248C460.7,211,451.3,176.2,434.7,145.9L434.7,145.9z M496,248c0,136.8-111.3,248-248,248
	C111.2,496,0,384.7,0,248C0,111.2,111.2,0,248,0C384.7,0,496,111.2,496,248z M484.6,248c0-130.5-106.2-236.6-236.6-236.6
	C117.5,11.4,11.4,117.5,11.4,248S117.6,484.6,248,484.6C378.5,484.6,484.6,378.5,484.6,248z"/>
</svg>
